<svg xmlns="http://www.w3.org/2000/svg" xmlns:xlink="http://www.w3.org/1999/xlink" viewBox="0 0 50 50" width="28px"
  height="28px" fill="#18181b">
  <path style="fill:none;stroke:#000000;stroke-width:2;stroke-miterlimit:10;"
    d="M3,25c0,12.148,9.852,22,22,22s22-9.852,22-22S37.148,3,25,3S3,12.852,3,25z" />
  <path style="fill:none;stroke:#000000;stroke-width:2;stroke-miterlimit:10;"
    d="M36.3,18.6c0.5-1.6,1.3-5.2-0.2-6.6c-2.7,0-4.6,1.3-5.5,2.1C29,13.4,27.1,13,25,13s-4,0.4-5.7,1.1c-0.9-0.8-2.8-2.1-5.5-2.1c-1.4,1.3-0.7,4.9-0.2,6.6c-1.1,1.5-1.7,3.3-1.7,5c0,5.5,4.2,9.4,13,9.4s13-3.9,13-9.4C38,21.8,37.4,20.1,36.3,18.6z" />
  <path style="fill:none;stroke:#000000;stroke-width:2;stroke-miterlimit:10;"
    d="M19,39c0,0-3,0-3.6,0c-1.5,0-2.8-0.6-3.4-1.8c-0.7-1.3-1-3.5-2.8-4.7C8.9,32.3,9.1,32,9.7,32c0.6,0.1,1.9,0.9,2.7,2c0.9,1.1,1.8,2,3.4,2s3.8,0.1,4.5-0.7" />
  <path style="fill:none;stroke:#000000;stroke-width:2;stroke-miterlimit:10;"
    d="M31,45.7v-6.1c0-2.7-1.9-6.5-4.5-6.5h-2.8c-2.6,0-4.7,3.8-4.7,6.5V46" />
</svg>