<svg width="832" height="832" viewBox="0 0 832 832" fill="#18181b" xmlns="http://www.w3.org/2000/svg">
<circle cx="416" cy="416" r="400" fill="white"/>
<path d="M698.843 133.157C623.291 57.607 522.845 16 416 16C317.967 16 225.335 51.0505 152.362 115.186C152.292 115.249 152.22 115.309 152.151 115.372C145.667 121.08 139.321 126.994 133.157 133.157C57.607 208.709 16 309.155 16 416C16 522.845 57.607 623.291 133.157 698.843C208.707 774.395 309.155 816 416 816C522.845 816 623.291 774.393 698.843 698.843C774.393 623.291 816 522.845 816 416C816 309.155 774.393 208.709 698.843 133.157ZM780.57 334.145L553.769 465.088V68.7015C667.147 113.837 753.377 212.958 780.57 334.145ZM304.605 480.315V351.685L416 287.371L527.397 351.685V480.315L416 544.629L304.605 480.315ZM527.395 59.3336V321.233L184.271 123.128C248.004 72.5943 328.535 42.3736 416 42.3736C454.782 42.3736 492.199 48.3165 527.395 59.3336ZM163.021 141.313L389.626 272.144L46.3385 470.342C43.7415 452.596 42.3736 434.456 42.3736 416C42.3736 307.481 88.8932 209.635 163.021 141.313ZM51.4303 497.855L278.231 366.912V763.298C164.853 718.163 78.6233 619.042 51.4303 497.855ZM304.605 772.666V510.767L409.472 571.313C409.491 571.323 409.51 571.335 409.53 571.346L647.729 708.87C583.996 759.406 503.464 789.626 416 789.626C377.218 789.626 339.801 783.684 304.605 772.666ZM668.979 690.688L442.374 559.856L785.662 361.658C788.258 379.404 789.626 397.544 789.626 416C789.626 524.519 743.107 622.365 668.979 690.688Z" />
</svg>
